<svg width="101" height="25" viewBox="0 0 101 25" fill="none" xmlns="http://www.w3.org/2000/svg">
<path d="M28.4662 21.878C28.4662 22.5353 28.2282 22.9773 27.7522 23.204C27.2989 23.4533 26.7436 23.578 26.0862 23.578C25.4289 23.578 24.8736 23.3513 24.4202 22.898C23.9896 22.422 23.6382 21.674 23.3662 20.654C23.1169 19.6113 22.9356 18.2627 22.8222 16.608C22.7089 14.9307 22.6522 12.902 22.6522 10.522C22.6522 10.4313 22.6182 10.3747 22.5502 10.352C22.5276 10.3747 22.4482 10.624 22.3122 11.1C22.1762 11.5533 22.0176 12.1313 21.8362 12.834C21.6776 13.5367 21.4962 14.33 21.2922 15.214C21.0882 16.0753 20.9069 16.9253 20.7482 17.764C20.5896 18.58 20.4536 19.3507 20.3402 20.076C20.2269 20.8013 20.1702 21.368 20.1702 21.776C20.1702 21.9573 20.2042 22.0933 20.2722 22.184C20.3629 22.2747 20.4082 22.3427 20.4082 22.388C20.4082 22.5013 20.3402 22.6033 20.2042 22.694C20.0909 22.7847 19.9436 22.864 19.7622 22.932C19.6036 23 19.4449 23.0453 19.2862 23.068C19.1502 23.1133 19.0482 23.136 18.9802 23.136C18.7989 23.136 18.5609 23.102 18.2662 23.034C17.9942 22.966 17.7109 22.864 17.4162 22.728C17.1442 22.5693 16.8722 22.3767 16.6002 22.15C16.3509 21.9233 16.1582 21.64 16.0222 21.3C15.9316 21.0507 15.8522 20.654 15.7842 20.11C15.7389 19.566 15.7049 18.9653 15.6822 18.308C15.6596 17.6507 15.6369 16.9593 15.6142 16.234C15.6142 15.5087 15.6142 14.84 15.6142 14.228C15.6142 13.48 15.6029 12.8227 15.5802 12.256C15.5576 11.6893 15.4896 11.406 15.3762 11.406C15.3309 11.406 15.2629 11.5193 15.1722 11.746C15.0816 11.95 14.9796 12.188 14.8662 12.46C14.7756 12.732 14.6849 13.004 14.5942 13.276C14.5262 13.5253 14.4809 13.7067 14.4582 13.82C13.9822 15.6787 13.6649 17.2993 13.5062 18.682C13.3476 20.042 13.2682 21.3 13.2682 22.456C13.2682 22.6827 13.2682 22.8413 13.2682 22.932C13.2909 23.0227 13.3136 23.0793 13.3362 23.102C13.3589 23.1473 13.3816 23.1813 13.4042 23.204C13.4269 23.2267 13.4496 23.2947 13.4722 23.408C13.2682 23.5213 12.9736 23.6007 12.5882 23.646C12.2029 23.6913 11.8176 23.714 11.4322 23.714C11.3869 23.714 11.2396 23.6913 10.9902 23.646C10.7636 23.6233 10.5142 23.5667 10.2422 23.476C9.9929 23.3853 9.7549 23.272 9.52823 23.136C9.32423 23 9.22223 22.83 9.22223 22.626C9.22223 22.4447 9.22223 22.0933 9.22223 21.572C9.2449 21.0507 9.25623 20.4387 9.25623 19.736C9.2789 19.0107 9.29023 18.2287 9.29023 17.39C9.3129 16.5287 9.32423 15.6673 9.32423 14.806C9.3469 13.9447 9.35823 13.1173 9.35823 12.324C9.3809 11.508 9.39223 10.8053 9.39223 10.216C9.39223 10.0347 9.3809 9.76267 9.35823 9.4C9.35823 9.01467 9.33557 8.584 9.29023 8.108C9.2449 7.60933 9.16557 7.11067 9.05223 6.612C8.96157 6.09067 8.82557 5.626 8.64423 5.218C8.48557 4.78733 8.27023 4.436 7.99823 4.164C7.7489 3.892 7.43157 3.756 7.04623 3.756C6.29823 3.756 5.6409 4.05067 5.07423 4.64C4.50757 5.20667 4.0429 5.90933 3.68023 6.748C3.31757 7.564 3.04557 8.42533 2.86423 9.332C2.6829 10.2387 2.59223 11.0207 2.59223 11.678C2.59223 11.882 2.60357 12.1993 2.62623 12.63C2.67157 13.0607 2.7509 13.4913 2.86423 13.922C3.00023 14.33 3.1929 14.704 3.44223 15.044C3.71423 15.3613 4.06557 15.52 4.49623 15.52C4.54157 15.52 4.67757 15.5087 4.90423 15.486C5.1309 15.4633 5.27823 15.452 5.34623 15.452C5.41423 15.452 5.51623 15.4633 5.65223 15.486C5.8109 15.5087 5.96957 15.5427 6.12823 15.588C6.2869 15.6333 6.4229 15.7127 6.53623 15.826C6.67223 15.9167 6.74023 16.0527 6.74023 16.234C6.74023 16.438 6.67223 16.608 6.53623 16.744C6.40023 16.8573 6.23023 16.948 6.02623 17.016C5.8449 17.084 5.66357 17.1293 5.48223 17.152C5.32357 17.1747 5.21023 17.186 5.14223 17.186C4.23557 17.186 3.51023 16.9593 2.96623 16.506C2.42223 16.0527 2.0029 15.5087 1.70823 14.874C1.41357 14.2393 1.2209 13.582 1.13023 12.902C1.0169 12.1993 0.960234 11.5987 0.960234 11.1C0.960234 10.2613 1.0849 9.298 1.33423 8.21C1.5609 7.122 1.94623 6.102 2.49023 5.15C3.0569 4.17533 3.78223 3.35933 4.66623 2.702C5.55023 2.022 6.63823 1.682 7.93023 1.682C8.31557 1.682 8.6669 1.784 8.98423 1.988C9.32423 2.16933 9.63023 2.41867 9.90223 2.736C10.1742 3.03067 10.4009 3.35933 10.5822 3.722C10.7862 4.08467 10.9336 4.42467 11.0242 4.742C11.2736 5.44467 11.4549 6.31733 11.5682 7.36C11.7042 8.38 11.7949 9.45667 11.8402 10.59C11.9082 11.7007 11.9422 12.8227 11.9422 13.956C11.9649 15.0893 11.9876 16.132 12.0102 17.084C12.1236 16.5173 12.2369 15.9847 12.3502 15.486C12.4862 14.9873 12.6222 14.4773 12.7582 13.956C12.8942 13.4347 13.0302 12.8793 13.1662 12.29C13.3249 11.7007 13.4949 11.032 13.6762 10.284C13.8576 9.468 14.0616 8.59533 14.2882 7.666C14.5376 6.73667 14.7869 5.898 15.0362 5.15C15.0816 4.946 15.2516 4.82133 15.5462 4.776C15.8409 4.73067 16.0336 4.708 16.1242 4.708C16.3056 4.708 16.5322 4.776 16.8042 4.912C17.0989 5.02533 17.3709 5.17267 17.6202 5.354C17.8922 5.53533 18.1189 5.75067 18.3002 6C18.5042 6.22667 18.6062 6.45333 18.6062 6.68V12.494C18.6062 12.9247 18.6062 13.4573 18.6062 14.092C18.6289 14.7267 18.6402 15.3387 18.6402 15.928C18.6629 16.4947 18.6856 16.982 18.7082 17.39C18.7536 17.798 18.7989 18.002 18.8442 18.002C18.9802 18.002 19.1389 17.6053 19.3202 16.812C19.5242 15.996 19.7509 14.9873 20.0002 13.786C20.2496 12.5847 20.5216 11.2927 20.8162 9.91C21.1109 8.50467 21.4282 7.20133 21.7682 6C22.1082 4.79867 22.4709 3.80133 22.8562 3.008C23.2416 2.192 23.6382 1.784 24.0462 1.784C24.2956 1.784 24.5676 1.93133 24.8622 2.226C25.1569 2.52067 25.4289 2.86067 25.6782 3.246C25.9276 3.60867 26.1316 3.98267 26.2902 4.368C26.4489 4.73067 26.5282 4.98 26.5282 5.116C26.5282 5.20667 26.4716 5.44467 26.3582 5.83C26.2449 6.19267 26.1202 6.80467 25.9842 7.666C25.8709 8.52733 25.7576 9.69467 25.6442 11.168C25.5309 12.6187 25.4742 14.466 25.4742 16.71C25.4742 17.1633 25.5082 17.7073 25.5762 18.342C25.6669 18.9767 25.7916 19.5887 25.9502 20.178C26.1089 20.7447 26.3129 21.232 26.5622 21.64C26.8342 22.048 27.1516 22.252 27.5142 22.252C27.6956 22.252 27.8542 22.218 27.9902 22.15C28.1262 22.0593 28.2622 21.8893 28.3982 21.64C28.4436 21.6853 28.4662 21.7647 28.4662 21.878ZM39.8878 13.276C39.9785 13.1173 40.1372 13.038 40.3638 13.038C40.4772 13.038 40.5565 13.106 40.6018 13.242C40.6472 13.378 40.6698 13.4913 40.6698 13.582C40.6472 14.2847 40.4885 14.9193 40.1938 15.486C39.9218 16.03 39.6272 16.506 39.3098 16.914C39.1285 17.1633 38.9245 17.39 38.6978 17.594C38.4938 17.798 38.2785 17.9907 38.0518 18.172C38.0292 18.5573 38.0065 18.8293 37.9838 18.988C37.9838 19.124 37.9725 19.2373 37.9498 19.328C37.9045 19.668 37.7912 20.0987 37.6098 20.62C37.4285 21.1413 37.1678 21.6513 36.8278 22.15C36.5105 22.6487 36.1138 23.068 35.6378 23.408C35.1845 23.7707 34.6518 23.952 34.0398 23.952C33.8358 23.952 33.5978 23.9293 33.3258 23.884C33.0765 23.8387 32.8158 23.7707 32.5438 23.68C32.2718 23.612 32.0112 23.5213 31.7618 23.408C31.5125 23.3173 31.2972 23.2153 31.1158 23.102C30.5492 22.7847 30.0845 22.4107 29.7218 21.98C29.3592 21.5493 29.0758 21.096 28.8718 20.62C28.6905 20.1213 28.5658 19.6227 28.4978 19.124C28.4298 18.6027 28.3958 18.104 28.3958 17.628C28.3958 16.812 28.4752 15.9847 28.6338 15.146C28.8152 14.3073 29.0305 13.5027 29.2798 12.732C29.5292 11.9613 29.8125 11.27 30.1298 10.658C30.4472 10.046 30.7532 9.57 31.0478 9.23C31.3425 8.91267 31.6712 8.69733 32.0338 8.584C32.3965 8.448 32.7252 8.38 33.0198 8.38C33.3825 8.38 33.7452 8.47067 34.1078 8.652C34.4705 8.83333 34.8218 9.06 35.1618 9.332C35.5018 9.604 35.8305 9.92133 36.1478 10.284C36.4878 10.624 36.8052 10.964 37.0998 11.304C37.3265 11.5533 37.4965 11.9613 37.6098 12.528C37.7232 13.072 37.8138 13.6273 37.8818 14.194C37.9272 14.5113 37.9612 14.8513 37.9838 15.214C38.0065 15.5767 38.0178 15.9507 38.0178 16.336C38.3578 16.064 38.6298 15.7807 38.8338 15.486C39.0378 15.1687 39.1965 14.874 39.3098 14.602C39.4458 14.33 39.5478 14.0807 39.6158 13.854C39.7065 13.6047 39.7972 13.412 39.8878 13.276ZM36.0458 16.2C36.0458 16.1093 36.0345 15.9053 36.0118 15.588C36.0118 15.2707 35.9892 14.8967 35.9438 14.466C35.9212 14.0353 35.8645 13.5933 35.7738 13.14C35.7058 12.664 35.5925 12.2333 35.4338 11.848C35.2978 11.4627 35.1165 11.1453 34.8898 10.896C34.6632 10.624 34.3798 10.488 34.0398 10.488C33.6998 10.488 33.3712 10.624 33.0538 10.896C32.7365 11.168 32.4532 11.5193 32.2038 11.95C31.9545 12.3807 31.7505 12.868 31.5918 13.412C31.4558 13.956 31.3878 14.4887 31.3878 15.01C31.3878 15.9167 31.5692 16.5853 31.9318 17.016C32.2945 17.424 32.9178 17.628 33.8018 17.628C34.4592 17.628 34.9918 17.526 35.3998 17.322C35.8305 17.118 36.0458 16.9593 36.0458 16.846V16.2ZM35.8758 18.988C35.6038 19.1693 35.2298 19.3053 34.7538 19.396C34.2778 19.4867 33.8812 19.532 33.5638 19.532C32.9518 19.532 32.4758 19.4867 32.1358 19.396C31.8185 19.3053 31.4672 19.124 31.0818 18.852L31.0478 19.566C31.0478 19.8153 31.0818 20.076 31.1498 20.348C31.2178 20.62 31.3198 20.8693 31.4558 21.096C31.6145 21.3227 31.8298 21.5153 32.1018 21.674C32.3738 21.81 32.7138 21.878 33.1218 21.878C33.6205 21.878 34.0398 21.7873 34.3798 21.606C34.7425 21.402 35.0258 21.1527 35.2298 20.858C35.4565 20.5633 35.6152 20.246 35.7058 19.906C35.8192 19.566 35.8758 19.26 35.8758 18.988ZM51.0109 13.276C51.1016 13.1173 51.2602 13.038 51.4869 13.038C51.6002 13.038 51.6796 13.106 51.7249 13.242C51.7702 13.378 51.7929 13.4913 51.7929 13.582C51.7702 14.2847 51.6116 14.9193 51.3169 15.486C51.0449 16.03 50.7502 16.506 50.4329 16.914C50.2516 17.1633 50.0476 17.39 49.8209 17.594C49.6169 17.798 49.4016 17.9907 49.1749 18.172C49.1522 18.5573 49.1296 18.8293 49.1069 18.988C49.1069 19.124 49.0956 19.2373 49.0729 19.328C49.0276 19.668 48.9142 20.0987 48.7329 20.62C48.5516 21.1413 48.2909 21.6513 47.9509 22.15C47.6336 22.6487 47.2369 23.068 46.7609 23.408C46.3076 23.7707 45.7749 23.952 45.1629 23.952C44.9589 23.952 44.7209 23.9293 44.4489 23.884C44.1996 23.8387 43.9389 23.7707 43.6669 23.68C43.3949 23.612 43.1342 23.5213 42.8849 23.408C42.6356 23.3173 42.4202 23.2153 42.2389 23.102C41.6722 22.7847 41.2076 22.4107 40.8449 21.98C40.4822 21.5493 40.1989 21.096 39.9949 20.62C39.8136 20.1213 39.6889 19.6227 39.6209 19.124C39.5529 18.6027 39.5189 18.104 39.5189 17.628C39.5189 16.812 39.5982 15.9847 39.7569 15.146C39.9382 14.3073 40.1536 13.5027 40.4029 12.732C40.6522 11.9613 40.9356 11.27 41.2529 10.658C41.5702 10.046 41.8762 9.57 42.1709 9.23C42.4656 8.91267 42.7942 8.69733 43.1569 8.584C43.5196 8.448 43.8482 8.38 44.1429 8.38C44.5056 8.38 44.8682 8.47067 45.2309 8.652C45.5936 8.83333 45.9449 9.06 46.2849 9.332C46.6249 9.604 46.9536 9.92133 47.2709 10.284C47.6109 10.624 47.9282 10.964 48.2229 11.304C48.4496 11.5533 48.6196 11.9613 48.7329 12.528C48.8462 13.072 48.9369 13.6273 49.0049 14.194C49.0502 14.5113 49.0842 14.8513 49.1069 15.214C49.1296 15.5767 49.1409 15.9507 49.1409 16.336C49.4809 16.064 49.7529 15.7807 49.9569 15.486C50.1609 15.1687 50.3196 14.874 50.4329 14.602C50.5689 14.33 50.6709 14.0807 50.7389 13.854C50.8296 13.6047 50.9202 13.412 51.0109 13.276ZM47.1689 16.2C47.1689 16.1093 47.1576 15.9053 47.1349 15.588C47.1349 15.2707 47.1122 14.8967 47.0669 14.466C47.0442 14.0353 46.9876 13.5933 46.8969 13.14C46.8289 12.664 46.7156 12.2333 46.5569 11.848C46.4209 11.4627 46.2396 11.1453 46.0129 10.896C45.7862 10.624 45.5029 10.488 45.1629 10.488C44.8229 10.488 44.4942 10.624 44.1769 10.896C43.8596 11.168 43.5762 11.5193 43.3269 11.95C43.0776 12.3807 42.8736 12.868 42.7149 13.412C42.5789 13.956 42.5109 14.4887 42.5109 15.01C42.5109 15.9167 42.6922 16.5853 43.0549 17.016C43.4176 17.424 44.0409 17.628 44.9249 17.628C45.5822 17.628 46.1149 17.526 46.5229 17.322C46.9536 17.118 47.1689 16.9593 47.1689 16.846V16.2ZM46.9989 18.988C46.7269 19.1693 46.3529 19.3053 45.8769 19.396C45.4009 19.4867 45.0042 19.532 44.6869 19.532C44.0749 19.532 43.5989 19.4867 43.2589 19.396C42.9416 19.3053 42.5902 19.124 42.2049 18.852L42.1709 19.566C42.1709 19.8153 42.2049 20.076 42.2729 20.348C42.3409 20.62 42.4429 20.8693 42.5789 21.096C42.7376 21.3227 42.9529 21.5153 43.2249 21.674C43.4969 21.81 43.8369 21.878 44.2449 21.878C44.7436 21.878 45.1629 21.7873 45.5029 21.606C45.8656 21.402 46.1489 21.1527 46.3529 20.858C46.5796 20.5633 46.7382 20.246 46.8289 19.906C46.9422 19.566 46.9989 19.26 46.9989 18.988ZM64.7519 17.186C64.7066 17.6847 64.6046 18.2513 64.4459 18.886C64.3099 19.5207 64.0946 20.1213 63.7999 20.688C63.5279 21.2547 63.1539 21.7307 62.6779 22.116C62.2246 22.5013 61.6693 22.694 61.0119 22.694C60.0373 22.694 59.3233 22.4673 58.8699 22.014C58.4393 21.5607 58.0766 20.858 57.7819 19.906L57.7479 20.076C57.6573 20.4387 57.5439 20.8353 57.4079 21.266C57.2946 21.6967 57.1246 22.0933 56.8979 22.456C56.6939 22.796 56.4333 23.0793 56.1159 23.306C55.7986 23.5553 55.3906 23.68 54.8919 23.68C54.5519 23.68 54.2119 23.612 53.8719 23.476C53.5546 23.3627 53.2146 23.2153 52.8519 23.034C52.3306 22.762 51.9226 22.3993 51.6279 21.946C51.3333 21.4927 51.1179 21.028 50.9819 20.552C50.8459 20.076 50.7666 19.6227 50.7439 19.192C50.7213 18.7387 50.7099 18.3873 50.7099 18.138V17.56C50.7099 17.424 50.7439 17.1293 50.8119 16.676C50.8799 16.2227 50.9819 15.7013 51.1179 15.112C51.2766 14.5 51.4579 13.8653 51.6619 13.208C51.8886 12.5507 52.1493 11.95 52.4439 11.406C52.7613 10.862 53.1126 10.4087 53.4979 10.046C53.9059 9.68333 54.3593 9.502 54.8579 9.502C55.4019 9.502 55.9233 9.59267 56.4219 9.774C56.9433 9.95533 57.3173 10.0913 57.5439 10.182C57.5666 9.774 57.5779 9.27533 57.5779 8.686C57.6006 8.09667 57.6119 7.51867 57.6119 6.952C57.6346 6.36267 57.6459 5.81867 57.6459 5.32C57.6459 4.82133 57.6459 4.44733 57.6459 4.198C57.6459 3.60867 57.6346 3.11 57.6119 2.702C57.5893 2.27133 57.5439 1.90867 57.4759 1.614C57.4306 1.31933 57.3739 1.08133 57.3059 0.899999C57.2379 0.718665 57.1586 0.559998 57.0679 0.423999C57.4533 0.310666 57.8273 0.231333 58.1899 0.186C58.5753 0.140666 58.9266 0.117999 59.2439 0.117999C59.7653 0.117999 60.1619 0.163332 60.4339 0.253999C60.7286 0.321999 60.8759 0.514666 60.8759 0.832C60.8759 0.967999 60.8419 1.36467 60.7739 2.022C60.7059 2.67933 60.6379 3.54067 60.5699 4.606C60.5019 5.64867 60.4339 6.86133 60.3659 8.244C60.2979 9.62667 60.2639 11.1 60.2639 12.664V16.098C60.2639 16.7327 60.2753 17.3447 60.2979 17.934C60.3206 18.5007 60.3659 19.0107 60.4339 19.464C60.5246 19.8947 60.6493 20.246 60.8079 20.518C60.9666 20.7673 61.1933 20.892 61.4879 20.892C62.1453 20.892 62.6326 20.518 62.9499 19.77C63.2899 18.9993 63.5619 17.798 63.7659 16.166C63.7886 15.9847 63.8339 15.826 63.9019 15.69C63.9699 15.554 64.1173 15.486 64.3439 15.486C64.5479 15.486 64.6726 15.622 64.7179 15.894C64.7859 16.1433 64.8086 16.3927 64.7859 16.642L64.7519 17.186ZM57.5779 12.256C57.5779 12.188 57.5213 12.1087 57.4079 12.018C57.3173 11.9273 57.1926 11.8367 57.0339 11.746C56.8979 11.6553 56.7506 11.576 56.5919 11.508C56.4333 11.44 56.2973 11.406 56.1839 11.406C55.7306 11.406 55.3226 11.6893 54.9599 12.256C54.6199 12.8 54.3253 13.48 54.0759 14.296C53.8493 15.112 53.6793 15.9847 53.5659 16.914C53.4526 17.8433 53.3959 18.6707 53.3959 19.396C53.3959 19.668 53.4073 19.9853 53.4299 20.348C53.4526 20.7107 53.5093 21.0507 53.5999 21.368C53.6906 21.6853 53.8153 21.9573 53.9739 22.184C54.1326 22.4107 54.3479 22.524 54.6199 22.524C54.9146 22.524 55.1866 22.354 55.4359 22.014C55.6853 21.674 55.9119 21.232 56.1159 20.688C56.3199 20.144 56.5013 19.532 56.6599 18.852C56.8413 18.172 56.9886 17.5033 57.1019 16.846C57.2379 16.166 57.3399 15.5313 57.4079 14.942C57.4759 14.33 57.5213 13.8427 57.5439 13.48L57.5779 12.256ZM81.3439 8.346C81.3439 9.59267 81.1286 10.8053 80.6979 11.984C80.2899 13.14 79.7233 14.1713 78.9979 15.078C78.2726 15.9847 77.4226 16.7213 76.4479 17.288C75.4959 17.832 74.4759 18.104 73.3879 18.104C73.1159 18.104 72.8439 18.036 72.5719 17.9C72.2999 17.7413 72.0166 17.5713 71.7219 17.39L71.5519 17.288C71.5066 17.832 71.4499 18.5007 71.3819 19.294C71.3366 20.0647 71.3139 20.926 71.3139 21.878C71.3139 22.0367 71.3139 22.1727 71.3139 22.286C71.3139 22.3993 71.3139 22.5013 71.3139 22.592C71.3366 22.6827 71.3479 22.7733 71.3479 22.864C71.3479 22.9547 71.3479 23.0793 71.3479 23.238C71.3479 23.4873 71.4046 23.7367 71.5179 23.986C71.6539 24.2353 71.7219 24.3827 71.7219 24.428C71.7219 24.632 71.5859 24.7453 71.3139 24.768C71.0419 24.8133 70.8719 24.836 70.8039 24.836C70.2146 24.836 69.7499 24.7453 69.4099 24.564C69.0926 24.3827 68.8546 23.9973 68.6959 23.408C68.5373 22.8187 68.4353 21.9687 68.3899 20.858C68.3673 19.7247 68.3559 18.2287 68.3559 16.37C68.3559 14.806 68.3899 13.2987 68.4579 11.848C68.5259 10.3973 68.6053 9.08267 68.6959 7.904C68.8093 6.70267 68.9113 5.67133 69.0019 4.81C69.1153 3.926 69.2059 3.26867 69.2739 2.838C69.0019 2.88333 68.6393 2.98533 68.1859 3.144C67.7553 3.28 67.2906 3.45 66.7919 3.654C66.2933 3.858 65.7833 4.096 65.2619 4.368C64.7406 4.64 64.2646 4.92333 63.8339 5.218C63.4259 5.51267 63.0973 5.81867 62.8479 6.136C62.5759 6.43067 62.4399 6.72533 62.4399 7.02L63.0179 8.924C63.0179 9.10533 62.9839 9.34333 62.9159 9.638C62.8479 9.91 62.6553 10.046 62.3379 10.046C61.8846 10.046 61.4993 9.96667 61.1819 9.808C60.8419 9.62667 60.5699 9.41133 60.3659 9.162C60.1393 8.89 59.9693 8.60667 59.8559 8.312C59.7426 8.01733 59.6859 7.74533 59.6859 7.496C59.6859 6.79333 59.9353 6.136 60.4339 5.524C60.9099 4.912 61.5446 4.35667 62.3379 3.858C63.1086 3.35933 63.9926 2.906 64.9899 2.498C65.9873 2.09 66.9959 1.75 68.0159 1.478C69.0359 1.206 70.0106 1.002 70.9399 0.865999C71.8919 0.707332 72.7079 0.627998 73.3879 0.627998C74.1813 0.627998 74.9633 0.684665 75.7339 0.797998C76.5273 0.888665 77.3093 1.12667 78.0799 1.512C78.8959 1.92 79.5193 2.48667 79.9499 3.212C80.4033 3.93733 80.7319 4.66267 80.9359 5.388C81.1399 6.11333 81.2533 6.75933 81.2759 7.326C81.3213 7.89267 81.3439 8.23267 81.3439 8.346ZM78.9639 6.884C78.9639 5.81867 78.7146 4.99133 78.2159 4.402C77.7399 3.79 77.1393 3.33667 76.4139 3.042C75.7113 2.74733 74.9633 2.57733 74.1699 2.532C73.3766 2.464 72.6626 2.43 72.0279 2.43C71.8919 2.43 71.6539 2.45267 71.3139 2.498C70.9966 2.52066 70.5773 2.57733 70.0559 2.668C70.8039 2.84933 71.3366 3.09867 71.6539 3.416C71.9713 3.73333 72.1186 4.01667 72.0959 4.266L71.7219 13.888C71.7219 14.6813 71.7899 15.2707 71.9259 15.656C72.0619 16.0413 72.4473 16.234 73.0819 16.234C73.6939 16.234 74.3399 15.9053 75.0199 15.248C75.7226 14.568 76.3573 13.752 76.9239 12.8C77.5133 11.8253 78.0006 10.8053 78.3859 9.74C78.7713 8.652 78.9639 7.7 78.9639 6.884ZM87.3085 7.258C87.3085 7.41667 87.2292 7.55267 87.0705 7.666C86.9119 7.75667 86.7305 7.82467 86.5265 7.87C86.3452 7.91533 86.1639 7.94933 85.9825 7.972C85.8012 7.99467 85.6879 8.006 85.6425 8.006C85.1665 8.006 84.6905 7.87 84.2145 7.598C83.7612 7.326 83.3419 6.89533 82.9565 6.306C82.9112 6.238 82.8432 6.14733 82.7525 6.034C82.6619 5.92067 82.6165 5.84133 82.6165 5.796C82.6165 5.68267 82.6959 5.58067 82.8545 5.49C83.0359 5.39933 83.2285 5.30867 83.4325 5.218C83.6592 5.12733 83.8632 5.05933 84.0445 5.014C84.2485 4.96867 84.3845 4.946 84.4525 4.946C84.9059 4.946 85.3479 5.05933 85.7785 5.286C86.2319 5.51267 86.5945 5.932 86.8665 6.544C86.9119 6.612 86.9912 6.73667 87.1045 6.918C87.2405 7.07667 87.3085 7.19 87.3085 7.258ZM90.7765 17.56C90.7085 18.104 90.5839 18.6707 90.4025 19.26C90.2212 19.8493 89.9605 20.4047 89.6205 20.926C89.3032 21.4247 88.8952 21.844 88.3965 22.184C87.8979 22.5013 87.2859 22.66 86.5605 22.66C85.9939 22.66 85.4159 22.4673 84.8265 22.082C84.2372 21.674 83.8292 21.1413 83.6025 20.484C83.3985 19.8267 83.2965 19.192 83.2965 18.58C83.2965 18.3987 83.3079 18.1267 83.3305 17.764C83.3532 17.4013 83.3645 16.9593 83.3645 16.438V12.698C83.3645 12.5167 83.3532 12.324 83.3305 12.12C83.3305 11.916 83.3079 11.7233 83.2625 11.542C83.2399 11.4513 83.1945 11.3493 83.1265 11.236C83.0812 11.1227 83.0585 11.0433 83.0585 10.998C83.0585 10.9073 83.1152 10.8393 83.2285 10.794C83.3419 10.726 83.4665 10.6807 83.6025 10.658C83.7385 10.6353 83.8632 10.624 83.9765 10.624C84.1125 10.624 84.1805 10.624 84.1805 10.624C84.2485 10.624 84.4072 10.6353 84.6565 10.658C84.9059 10.658 85.1665 10.692 85.4385 10.76C85.7105 10.828 85.9485 10.9413 86.1525 11.1C86.3792 11.236 86.4925 11.44 86.4925 11.712C86.5152 11.78 86.4699 11.9047 86.3565 12.086C86.2659 12.2673 86.1752 12.5847 86.0845 13.038C86.0619 13.2193 86.0392 13.3893 86.0165 13.548C85.9939 13.684 85.9712 13.8427 85.9485 14.024C85.9259 14.2053 85.9032 14.432 85.8805 14.704C85.8579 14.9533 85.8352 15.282 85.8125 15.69V17.73C85.8125 18.0927 85.8239 18.4667 85.8465 18.852C85.8692 19.2147 85.9145 19.5547 85.9825 19.872C86.0732 20.1667 86.2092 20.416 86.3905 20.62C86.5719 20.8013 86.8099 20.892 87.1045 20.892C87.5352 20.892 87.8752 20.7673 88.1245 20.518C88.3739 20.2687 88.5665 20.0533 88.7025 19.872C88.9519 19.532 89.1445 19.1127 89.2805 18.614C89.4165 18.0927 89.5412 17.56 89.6545 17.016L89.7225 16.676C89.7905 16.336 89.9945 16.166 90.3345 16.166C90.6745 16.166 90.8445 16.404 90.8445 16.88V17.05L90.7765 17.56ZM99.892 19.94C99.348 21.232 98.6453 22.1727 97.784 22.762C96.9453 23.3287 95.948 23.612 94.792 23.612C94.6787 23.612 94.5653 23.612 94.452 23.612C94.3613 23.612 94.2593 23.6007 94.146 23.578C93.5793 23.51 93.0353 23.3287 92.514 23.034C91.9927 22.762 91.5393 22.3767 91.154 21.878C90.7687 21.3567 90.4627 20.7333 90.236 20.008C90.0093 19.26 89.896 18.41 89.896 17.458C89.896 16.5513 90.0093 15.5993 90.236 14.602C90.4853 13.6047 90.9727 12.698 91.698 11.882C92.3327 11.1567 93.0693 10.5787 93.908 10.148C94.7693 9.71733 95.642 9.502 96.526 9.502C96.9567 9.502 97.342 9.57 97.682 9.706C98.0447 9.81933 98.2487 9.96667 98.294 10.148C98.3393 10.3973 98.362 10.7147 98.362 11.1C98.3847 11.4627 98.396 11.95 98.396 12.562C98.396 13.0833 98.3507 13.4687 98.26 13.718C98.192 13.9673 98.0333 14.092 97.784 14.092C97.512 14.0693 97.3193 13.9333 97.206 13.684C97.0927 13.412 96.9793 13.1287 96.866 12.834C96.7527 12.5167 96.6053 12.2333 96.424 11.984C96.2427 11.712 95.948 11.5647 95.54 11.542C94.9507 11.542 94.4633 11.7687 94.078 12.222C93.6927 12.6753 93.3867 13.208 93.16 13.82C92.956 14.432 92.8087 15.044 92.718 15.656C92.65 16.268 92.616 16.744 92.616 17.084C92.616 18.3987 92.8087 19.532 93.194 20.484C93.602 21.4133 94.316 21.9233 95.336 22.014L95.71 22.048C96.4127 22.048 96.9793 21.878 97.41 21.538C97.8407 21.1753 98.1807 20.79 98.43 20.382C98.702 19.9513 98.906 19.566 99.042 19.226C99.2007 18.8633 99.3593 18.682 99.518 18.682H99.62C99.9147 18.7047 100.062 18.8973 100.062 19.26C100.062 19.4187 100.005 19.6453 99.892 19.94Z" fill="url(#paint0_linear_15_25)"/>
<defs>
<linearGradient id="paint0_linear_15_25" x1="-136.634" y1="13.3077" x2="128.54" y2="34.4218" gradientUnits="userSpaceOnUse">
<stop stop-color="#FF00B8"/>
<stop offset="1" stop-color="#FF5C00" stop-opacity="0.64"/>
</linearGradient>
</defs>
</svg>
